# xmcd
#
# Track frame offsets: 
#        150
#        13495
#        26952
#        41340
#        56539
#        70120
#        85545
#        100552
#        117502
#        132155
#        148140
#        163395
#        178465
#        194442
#
# Disc length: 2780 seconds
#
# Revision: 3
# Processed by: cddbd v1.5.2PL0 Copyright (c) Steve Scherf et al.
# Submitted via: ExactAudioCopy v0.95a5
#
DISCID=cd0ada0e
DTITLE=Various Artist - HOT HITS COUNTRY VOL 46
DYEAR=1900
DGENRE=Country
TTITLE0=MARTY STUART - IF I AIN'T GOT YOU
TTITLE1=DARYLE SINGLETARY - I LET HER LIE
TTITLE2=FAITH HILL - LET'S GO TO VEGAS
TTITLE3=BRYAN WHITE - SOMEONE ELSE'S STAR
TTITLE4=TRISHA YEARWOOD - I WANNA GO TOO FAR
TTITLE5=JOHN BERRY - I THINK ABOUT IT ALL THE TIME
TTITLE6=PATTY LOVELESS - HALFWAY DOWN
TTITLE7=4 RUNNER - A HEART WITH 4 WHEEL DRIVE
TTITLE8=SHELBY LYNNE - SLOW ME DOWN
TTITLE9=RUSS TAFF - BEIN HAPPY
TTITLE10=KIM RICHEY - JUST MY LUCK
TTITLE11=BRETT JAMES - FEMALE BONDING
TTITLE12=DOUG STONE - SOMETIMES I FORGET
TTITLE13=JEFF FOXWORTHY - PARTY ALL NIGHT
EXTD=
EXTT0=
EXTT1=
EXTT2=
EXTT3=
EXTT4=
EXTT5=
EXTT6=
EXTT7=
EXTT8=
EXTT9=
EXTT10=
EXTT11=
EXTT12=
EXTT13=
PLAYORDER=
